<svg width="295" height="240" viewBox="0 0 295 240" fill="none" xmlns="http://www.w3.org/2000/svg">
<g filter="url(#filter0_i_8_7)">
<path d="M295 104C295 161.438 248.438 208 191 208C133.562 208 87 161.438 87 104C87 46.5624 133.562 3.05176e-05 191 3.05176e-05C248.438 3.05176e-05 295 46.5624 295 104Z" fill="url(#paint0_linear_8_7)"/>
</g>
<g filter="url(#filter2_i_8_7)">
<path d="M250.326 157.629C251.049 153.524 251.426 149.302 251.426 144.993C251.426 104.68 218.441 72 177.752 72C147.503 72 121.512 90.0612 110.166 115.893C100.974 108.03 89.0468 103.283 76.0124 103.283C46.949 103.283 23.3884 126.885 23.3884 156C23.3884 157.621 23.4615 159.225 23.6045 160.809C9.62549 167.593 0 181.828 0 198.29C0 221.326 18.8484 240 42.0992 240H240.901C264.152 240 283 221.326 283 198.29C283 178.464 269.039 161.869 250.326 157.629Z" fill="url(#paint1_linear_8_7)"/>
</g>
<defs>
<filter id="filter0_i_8_7" x="87" y="3.05176e-05" width="208" height="213" filterUnits="userSpaceOnUse" color-interpolation-filters="sRGB">
<feFlood flood-opacity="0" result="BackgroundImageFix"/>
<feBlend mode="normal" in="SourceGraphic" in2="BackgroundImageFix" result="shape"/>
<feColorMatrix in="SourceAlpha" type="matrix" values="0 0 0 0 0 0 0 0 0 0 0 0 0 0 0 0 0 0 127 0" result="hardAlpha"/>
<feOffset dy="5"/>
<feGaussianBlur stdDeviation="9"/>
<feComposite in2="hardAlpha" operator="arithmetic" k2="-1" k3="1"/>
<feColorMatrix type="matrix" values="0 0 0 0 1 0 0 0 0 1 0 0 0 0 1 0 0 0 0.81 0"/>
<feBlend mode="normal" in2="shape" result="effect1_innerShadow_8_7"/>
</filter>
<filter id="filter2_i_8_7" x="0" y="72" width="283" height="178" filterUnits="userSpaceOnUse" color-interpolation-filters="sRGB">
<feFlood flood-opacity="0" result="BackgroundImageFix"/>
<feBlend mode="normal" in="SourceGraphic" in2="BackgroundImageFix" result="shape"/>
<feColorMatrix in="SourceAlpha" type="matrix" values="0 0 0 0 0 0 0 0 0 0 0 0 0 0 0 0 0 0 127 0" result="hardAlpha"/>
<feOffset dy="11"/>
<feGaussianBlur stdDeviation="5"/>
<feComposite in2="hardAlpha" operator="arithmetic" k2="-1" k3="1"/>
<feColorMatrix type="matrix" values="0 0 0 0 1 0 0 0 0 1 0 0 0 0 1 0 0 0 1 0"/>
<feBlend mode="normal" in2="shape" result="effect1_innerShadow_8_7"/>
</filter>
<linearGradient id="paint0_linear_8_7" x1="175.203" y1="160.608" x2="260.772" y2="10.5317" gradientUnits="userSpaceOnUse">
<stop stop-color="#FF9900"/>
<stop offset="1" stop-color="#FFEE94"/>
</linearGradient>
<linearGradient id="paint1_linear_8_7" x1="18" y1="225" x2="303.5" y2="11.4999" gradientUnits="userSpaceOnUse">
<stop stop-color="white"/>
<stop offset="1" stop-color="white" stop-opacity="0.58"/>
</linearGradient>
</defs>
</svg>
